<?xml version="1.0" standalone="no"?>
<!DOCTYPE svg PUBLIC "-//W3C//DTD SVG 20010904//EN"
 "http://www.w3.org/TR/2001/REC-SVG-20010904/DTD/svg10.dtd">
<svg version="1.0" xmlns="http://www.w3.org/2000/svg"
 width="512.000000pt" height="512.000000pt" viewBox="0 0 512.000000 512.000000"
 preserveAspectRatio="xMidYMid meet">

<g transform="translate(0.000000,512.000000) scale(0.100000,-0.100000)"
fill="#000000" stroke="none">
<path d="M2380 5114 c-19 -2 -78 -9 -130 -14 -330 -36 -695 -160 -990 -336
-375 -224 -680 -529 -904 -904 -175 -292 -291 -632 -338 -990 -16 -123 -16
-497 0 -620 82 -623 356 -1150 820 -1581 256 -239 575 -425 922 -539 274 -91
491 -124 800 -124 228 0 329 9 530 50 689 141 1304 583 1674 1204 175 292 291
632 338 990 16 123 16 497 0 620 -47 358 -163 698 -338 990 -224 375 -529 680
-904 904 -289 173 -634 291 -980 336 -88 12 -438 21 -500 14z m375 -164 c477
-44 887 -203 1270 -493 102 -78 308 -278 392 -382 214 -265 382 -595 462 -908
105 -409 105 -805 0 -1214 -80 -313 -248 -643 -462 -908 -84 -104 -290 -304
-392 -382 -265 -200 -562 -347 -858 -422 -409 -105 -805 -105 -1214 0 -313 80
-643 248 -908 462 -104 84 -304 290 -382 392 -200 265 -347 562 -422 858 -105
409 -105 805 0 1214 80 313 248 643 462 908 84 104 290 304 392 382 265 200
562 346 858 422 272 70 547 94 802 71z"/>
<path d="M3140 3823 c-81 -9 -187 -35 -244 -60 -251 -110 -427 -325 -481 -588
-9 -44 -18 -81 -20 -83 -2 -2 -48 6 -102 18 -343 78 -617 228 -879 482 -98 94
-117 108 -146 108 -54 0 -81 -38 -120 -170 -55 -186 -23 -421 82 -591 l30 -49
-23 0 c-13 0 -34 -12 -48 -26 -22 -23 -24 -33 -22 -106 5 -176 75 -338 203
-465 50 -50 51 -53 36 -75 -20 -28 -20 -55 0 -104 72 -182 203 -322 372 -401
41 -19 72 -36 70 -38 -1 -2 -39 -21 -83 -43 -176 -87 -309 -121 -524 -131
-142 -7 -144 -7 -168 -35 -30 -35 -26 -80 10 -110 38 -33 278 -143 388 -180
318 -103 655 -124 984 -60 244 48 504 156 700 291 80 55 101 87 85 129 -28 72
-79 71 -188 -2 -164 -109 -400 -210 -582 -249 -323 -69 -608 -57 -918 37
l-104 32 94 23 c181 46 351 126 501 236 102 75 119 111 74 162 -18 21 -35 28
-92 35 -163 21 -294 94 -385 213 -22 30 -40 57 -40 60 0 4 11 7 25 7 47 0 127
22 146 41 21 21 25 69 9 99 -5 10 -36 28 -67 40 -159 59 -265 148 -327 274
-20 41 -40 90 -43 110 l-5 35 105 -6 c103 -6 105 -5 131 20 25 25 32 59 20 91
-3 9 -35 36 -70 61 -161 115 -255 312 -241 504 8 116 12 120 61 73 132 -126
296 -238 481 -327 200 -97 441 -170 602 -182 78 -6 82 -5 107 20 22 22 26 35
26 82 0 31 7 88 16 128 46 201 166 354 349 442 108 52 166 65 288 65 160 0
294 -50 418 -156 76 -64 87 -65 234 -30 55 14 101 23 103 21 2 -1 -23 -22 -54
-46 -127 -96 -146 -129 -103 -183 18 -23 28 -26 77 -26 31 1 86 7 122 15 l65
13 -56 -51 c-31 -29 -79 -72 -108 -97 l-53 -45 -4 -100 c-20 -424 -156 -783
-418 -1101 -42 -50 -56 -76 -56 -99 0 -43 35 -75 82 -75 32 0 43 7 91 63 268
307 427 699 457 1126 l8 114 33 25 c67 49 237 230 287 306 57 85 62 110 31
150 -27 34 -69 34 -151 1 -34 -14 -63 -25 -66 -25 -2 0 6 15 18 33 38 57 80
158 80 192 0 38 -37 75 -74 75 -12 0 -59 -18 -103 -40 -92 -45 -208 -85 -275
-95 -42 -6 -49 -4 -99 34 -74 57 -199 117 -289 140 -78 19 -210 31 -270 24z"/>
</g>
</svg>
